<?xml version="1.0" encoding="UTF-8"?>
<!DOCTYPE svg PUBLIC "-//W3C//DTD SVG 1.1//EN" "http://www.w3.org/Graphics/SVG/1.1/DTD/svg11.dtd">
<svg xmlns="http://www.w3.org/2000/svg" version="1.1" width="900px" height="603px" style="shape-rendering:geometricPrecision; text-rendering:geometricPrecision; image-rendering:optimizeQuality; fill-rule:evenodd; clip-rule:evenodd" xmlns:xlink="http://www.w3.org/1999/xlink">
<g><path style="opacity:1" fill="#0b64af" d="M 122.5,95.5 C 149.008,93.568 174.008,98.7347 197.5,111C 204.11,114.889 210.277,119.389 216,124.5C 216.667,200.5 216.667,276.5 216,352.5C 213.696,391.458 199.029,424.792 172,452.5C 160,463.833 148,475.167 136,486.5C 117.968,470.135 100.968,452.802 85,434.5C 66.4089,407.512 56.4089,377.512 55,344.5C 54.1667,271.164 54.3334,197.831 55.5,124.5C 74.9218,108.029 97.2551,98.3621 122.5,95.5 Z"/></g>
<g><path style="opacity:0.992" fill="#006bb3" d="M 687.5,116.5 C 704.074,114.537 716.907,120.537 726,134.5C 736.487,153.779 741.987,174.446 742.5,196.5C 734.5,196.5 726.5,196.5 718.5,196.5C 717.693,185.603 714.859,175.27 710,165.5C 696.734,153.897 686.401,156.23 679,172.5C 672.302,192.446 669.468,212.946 670.5,234C 668.982,256.686 672.482,278.519 681,299.5C 688.596,311.013 697.596,312.347 708,303.5C 714.598,292.447 718.098,280.447 718.5,267.5C 726.528,267.169 734.528,267.502 742.5,268.5C 741.026,291.04 735.193,312.373 725,332.5C 713.216,351.388 697.383,355.888 677.5,346C 663.632,332.769 655.132,316.602 652,297.5C 647.612,276.728 645.778,255.728 646.5,234.5C 645.4,207.967 648.567,181.967 656,156.5C 659.889,144.887 665.722,134.387 673.5,125C 677.832,121.477 682.499,118.644 687.5,116.5 Z"/></g>
<g><path style="opacity:0.983" fill="#006bb3" d="M 247.5,122.5 C 255.5,122.5 263.5,122.5 271.5,122.5C 271.5,150.5 271.5,178.5 271.5,206.5C 284.833,206.5 298.167,206.5 311.5,206.5C 311.5,178.5 311.5,150.5 311.5,122.5C 319.167,122.5 326.833,122.5 334.5,122.5C 334.5,196.833 334.5,271.167 334.5,345.5C 326.833,345.5 319.167,345.5 311.5,345.5C 311.5,312.167 311.5,278.833 311.5,245.5C 298.167,245.5 284.833,245.5 271.5,245.5C 271.5,278.833 271.5,312.167 271.5,345.5C 263.5,345.5 255.5,345.5 247.5,345.5C 247.5,271.167 247.5,196.833 247.5,122.5 Z"/></g>
<g><path style="opacity:0.995" fill="#006bb3" d="M 756.5,122.5 C 764.5,122.5 772.5,122.5 780.5,122.5C 780.5,150.5 780.5,178.5 780.5,206.5C 793.833,206.5 807.167,206.5 820.5,206.5C 820.5,178.5 820.5,150.5 820.5,122.5C 828.167,122.5 835.833,122.5 843.5,122.5C 843.5,196.833 843.5,271.167 843.5,345.5C 835.833,345.5 828.167,345.5 820.5,345.5C 820.5,312.167 820.5,278.833 820.5,245.5C 807.167,245.5 793.833,245.5 780.5,245.5C 780.5,278.833 780.5,312.167 780.5,345.5C 772.5,345.5 764.5,345.5 756.5,345.5C 756.5,271.167 756.5,196.833 756.5,122.5 Z"/></g>
<g><path style="opacity:0.986" fill="#006bb3" d="M 354.5,122.5 C 362.5,122.5 370.5,122.5 378.5,122.5C 378.333,174.168 378.5,225.834 379,277.5C 379.212,288.874 382.712,299.041 389.5,308C 396.527,311.663 403.027,310.83 409,305.5C 413.866,297.902 416.532,289.569 417,280.5C 417.5,227.834 417.667,175.168 417.5,122.5C 425.5,122.5 433.5,122.5 441.5,122.5C 441.667,176.834 441.5,231.168 441,285.5C 440.645,304.267 435.645,321.6 426,337.5C 413.92,351.049 399.42,354.549 382.5,348C 373.3,342.448 366.8,334.615 363,324.5C 358.294,311.937 355.628,298.937 355,285.5C 354.5,231.168 354.333,176.834 354.5,122.5 Z"/></g>
<g><path style="opacity:1" fill="#006bb3" d="M 452.5,122.5 C 481.833,122.5 511.167,122.5 540.5,122.5C 540.5,135.833 540.5,149.167 540.5,162.5C 529.833,162.5 519.167,162.5 508.5,162.5C 508.5,223.5 508.5,284.5 508.5,345.5C 500.5,345.5 492.5,345.5 484.5,345.5C 484.5,284.5 484.5,223.5 484.5,162.5C 473.833,162.5 463.167,162.5 452.5,162.5C 452.5,149.167 452.5,135.833 452.5,122.5 Z"/></g>
<g><path style="opacity:0.985" fill="#006bb3" d="M 552.5,122.5 C 578.833,122.5 605.167,122.5 631.5,122.5C 631.5,135.833 631.5,149.167 631.5,162.5C 612.833,162.5 594.167,162.5 575.5,162.5C 575.5,177.5 575.5,192.5 575.5,207.5C 592.503,207.333 609.503,207.5 626.5,208C 627.49,221.421 627.823,234.921 627.5,248.5C 610.167,248.5 592.833,248.5 575.5,248.5C 575.5,267.167 575.5,285.833 575.5,304.5C 595.167,304.5 614.833,304.5 634.5,304.5C 634.5,318.167 634.5,331.833 634.5,345.5C 607.167,345.5 579.833,345.5 552.5,345.5C 552.5,271.167 552.5,196.833 552.5,122.5 Z"/></g>
<g><path style="opacity:1" fill="#f0f5fa" d="M 156.5,127.5 C 160.683,126.846 163.516,128.512 165,132.5C 165.497,134.81 165.663,137.143 165.5,139.5C 164.5,139.5 163.5,139.5 162.5,139.5C 160.849,133.342 158.349,133.009 155,138.5C 153.831,144.673 154.664,150.507 157.5,156C 158.784,156.684 159.951,156.517 161,155.5C 161.813,153.564 162.313,151.564 162.5,149.5C 163.5,149.5 164.5,149.5 165.5,149.5C 166.29,154.969 164.623,159.469 160.5,163C 156.984,162.851 154.484,161.017 153,157.5C 151.443,150.247 151.11,142.914 152,135.5C 153.245,132.676 154.745,130.009 156.5,127.5 Z"/></g>
<g><path style="opacity:1" fill="#ecf2f9" d="M 89.5,128.5 C 90.8333,128.5 92.1667,128.5 93.5,128.5C 93.5,132.833 93.5,137.167 93.5,141.5C 95.5,141.5 97.5,141.5 99.5,141.5C 99.5,137.167 99.5,132.833 99.5,128.5C 100.833,128.5 102.167,128.5 103.5,128.5C 103.5,139.833 103.5,151.167 103.5,162.5C 102.167,162.5 100.833,162.5 99.5,162.5C 99.5,157.5 99.5,152.5 99.5,147.5C 97.5,147.5 95.5,147.5 93.5,147.5C 93.5,152.5 93.5,157.5 93.5,162.5C 92.1667,162.5 90.8333,162.5 89.5,162.5C 89.5,151.167 89.5,139.833 89.5,128.5 Z"/></g>
<g><path style="opacity:1" fill="#e9f0f7" d="M 106.5,128.5 C 107.833,128.5 109.167,128.5 110.5,128.5C 110.334,137.506 110.5,146.506 111,155.5C 113.022,156.991 114.688,156.658 116,154.5C 116.5,145.84 116.666,137.173 116.5,128.5C 117.833,128.5 119.167,128.5 120.5,128.5C 120.666,137.506 120.5,146.506 120,155.5C 119.218,161.295 116.051,163.462 110.5,162C 108.513,160.681 107.346,158.848 107,156.5C 106.5,147.173 106.334,137.839 106.5,128.5 Z"/></g>
<g><path style="opacity:1" fill="#f8fafc" d="M 130.5,161.5 C 129.5,161.5 128.5,161.5 127.5,161.5C 127.827,152.318 127.493,143.318 126.5,134.5C 125.167,134.5 123.833,134.5 122.5,134.5C 122.5,132.5 122.5,130.5 122.5,128.5C 126.833,128.5 131.167,128.5 135.5,128.5C 135.5,130.5 135.5,132.5 135.5,134.5C 133.833,134.5 132.167,134.5 130.5,134.5C 130.5,143.5 130.5,152.5 130.5,161.5 Z"/></g>
<g><path style="opacity:1" fill="#f7f9fc" d="M 137.5,128.5 C 141.5,128.5 145.5,128.5 149.5,128.5C 149.5,130.5 149.5,132.5 149.5,134.5C 146.5,134.5 143.5,134.5 140.5,134.5C 140.5,136.833 140.5,139.167 140.5,141.5C 143.167,141.5 145.833,141.5 148.5,141.5C 148.5,143.5 148.5,145.5 148.5,147.5C 145.833,147.5 143.167,147.5 140.5,147.5C 140.5,150.5 140.5,153.5 140.5,156.5C 143.5,156.5 146.5,156.5 149.5,156.5C 149.5,158.5 149.5,160.5 149.5,162.5C 145.5,162.5 141.5,162.5 137.5,162.5C 137.5,151.167 137.5,139.833 137.5,128.5 Z"/></g>
<g><path style="opacity:1" fill="#edf3f9" d="M 168.5,128.5 C 169.833,128.5 171.167,128.5 172.5,128.5C 172.5,132.833 172.5,137.167 172.5,141.5C 174.5,141.5 176.5,141.5 178.5,141.5C 178.5,137.167 178.5,132.833 178.5,128.5C 179.833,128.5 181.167,128.5 182.5,128.5C 182.5,139.833 182.5,151.167 182.5,162.5C 181.167,162.5 179.833,162.5 178.5,162.5C 178.5,157.5 178.5,152.5 178.5,147.5C 176.5,147.5 174.5,147.5 172.5,147.5C 172.5,152.5 172.5,157.5 172.5,162.5C 171.167,162.5 169.833,162.5 168.5,162.5C 168.5,151.167 168.5,139.833 168.5,128.5 Z"/></g>
<g><path style="opacity:1" fill="#b0cbe6" d="M 126.5,134.5 C 127.493,143.318 127.827,152.318 127.5,161.5C 128.5,161.5 129.5,161.5 130.5,161.5C 129.432,162.434 128.099,162.768 126.5,162.5C 126.5,153.167 126.5,143.833 126.5,134.5 Z"/></g>
<g><path style="opacity:1" fill="#76a7d3" d="M 101.5,197.5 C 101.666,189.493 101.5,181.493 101,173.5C 100.829,181.011 100.329,188.345 99.5,195.5C 99.5,187.833 99.5,180.167 99.5,172.5C 100.5,172.5 101.5,172.5 102.5,172.5C 102.826,181.017 102.493,189.35 101.5,197.5 Z"/></g>
<g><path style="opacity:1" fill="#b3cce6" d="M 116.5,172.5 C 117.649,172.791 118.316,173.624 118.5,175C 118.167,175.833 117.833,176.667 117.5,177.5C 116.548,175.955 116.215,174.288 116.5,172.5 Z"/></g>
<g><path style="opacity:1" fill="#b8d1e8" d="M 161.5,172.5 C 162.649,172.791 163.316,173.624 163.5,175C 163.167,175.833 162.833,176.667 162.5,177.5C 161.548,175.955 161.215,174.288 161.5,172.5 Z"/></g>
<g><path style="opacity:1" fill="#e3ecf6" d="M 166.5,174.5 C 168.061,177.018 169.394,179.851 170.5,183C 167.957,189.829 167.957,196.663 170.5,203.5C 168.876,203.64 167.71,202.973 167,201.5C 166.102,192.447 165.935,183.447 166.5,174.5 Z"/></g>
<g><path style="opacity:1" fill="#eff4fa" d="M 109.5,180.5 C 111.017,180.511 112.184,181.177 113,182.5C 113.667,189.5 113.667,196.5 113,203.5C 112.667,197.833 112.333,192.167 112,186.5C 109.918,183.85 108.251,184.184 107,187.5C 106.667,192.833 106.333,198.167 106,203.5C 105.333,196.167 105.333,188.833 106,181.5C 107.217,183.612 108.383,183.279 109.5,180.5 Z"/></g>
<g><path style="opacity:1" fill="#c1d5eb" d="M 116.5,181.5 C 117.822,184.768 118.489,188.435 118.5,192.5C 118.167,196.167 117.833,199.833 117.5,203.5C 116.503,196.197 116.169,188.863 116.5,181.5 Z"/></g>
<g><path style="opacity:1" fill="#c9dded" d="M 161.5,181.5 C 162.822,184.768 163.489,188.435 163.5,192.5C 163.167,196.167 162.833,199.833 162.5,203.5C 161.503,196.197 161.169,188.863 161.5,181.5 Z"/></g>
<g><path style="opacity:1" fill="#e7eff7" d="M 135.5,180.5 C 138.168,181.099 140.002,182.766 141,185.5C 141.497,188.146 141.664,190.813 141.5,193.5C 138.833,193.5 136.167,193.5 133.5,193.5C 133.721,201.123 136.054,202.123 140.5,196.5C 141.533,201.305 139.533,203.471 134.5,203C 130.171,195.177 130.504,187.677 135.5,180.5 Z"/></g>
<g><path style="opacity:1" fill="#2c70b6" d="M 135.5,184.5 C 138.776,185.122 140.109,187.122 139.5,190.5C 137.5,190.5 135.5,190.5 133.5,190.5C 133.253,188.142 133.919,186.142 135.5,184.5 Z"/></g>
<g><path style="opacity:1" fill="#ebf2f8" d="M 151.5,181.5 C 156.714,180.711 158.714,182.711 157.5,187.5C 156.579,185.244 154.912,184.244 152.5,184.5C 152.215,186.288 152.548,187.955 153.5,189.5C 157.38,190.544 159.047,193.044 158.5,197C 159.101,200.271 157.934,202.438 155,203.5C 150.918,202.841 149.584,200.508 151,196.5C 152.997,201.146 155.164,201.479 157.5,197.5C 155.523,195.071 153.356,192.738 151,190.5C 150.366,187.445 150.532,184.445 151.5,181.5 Z"/></g>
<g><path style="opacity:1" fill="#e4ecf6" d="M 143.5,181.5 C 144.94,182.363 146.274,182.363 147.5,181.5C 147.833,182 148.167,182.5 148.5,183C 147.683,184.49 146.85,185.99 146,187.5C 145.829,192.864 145.329,198.198 144.5,203.5C 143.503,196.197 143.169,188.863 143.5,181.5 Z"/></g>
<g><path style="opacity:1" fill="#e7eff7" d="M 99.5,195.5 C 100.329,188.345 100.829,181.011 101,173.5C 101.5,181.493 101.666,189.493 101.5,197.5C 99.1591,205.682 95.6591,206.348 91,199.5C 90.1681,190.814 90.3348,182.147 91.5,173.5C 92.3316,181.479 92.8316,189.479 93,197.5C 94.4781,200.993 96.4781,201.326 99,198.5C 99.4828,197.552 99.6495,196.552 99.5,195.5 Z"/></g>
<g><path style="opacity:1" fill="#e2ecf5" d="M 172.5,181.5 C 173.693,181.97 174.36,182.97 174.5,184.5C 175.118,188.876 175.952,193.21 177,197.5C 177.633,192.028 178.8,186.695 180.5,181.5C 180.278,191.21 178.778,200.877 176,210.5C 174.989,211.337 173.822,211.67 172.5,211.5C 172.461,209.641 173.294,208.308 175,207.5C 175.167,205.833 175.333,204.167 175.5,202.5C 174.22,195.539 173.22,188.539 172.5,181.5 Z"/></g>
<g><path style="opacity:1" fill="#dae6f3" d="M 121.5,181.5 C 123.411,186.2 124.911,191.2 126,196.5C 126.465,191.369 127.465,186.369 129,181.5C 126.866,210.776 124.366,210.776 121.5,181.5 Z"/></g>
<g><path style="opacity:1" fill="#f5f7f6" d="M 210.5,254.5 C 181.419,231.177 148.419,223.01 111.5,230C 92.7668,234.201 76.1001,242.368 61.5,254.5C 61.3398,252.801 61.5065,251.134 62,249.5C 98.1388,221.959 137.639,216.125 180.5,232C 191.209,236.435 201.042,242.268 210,249.5C 210.494,251.134 210.66,252.801 210.5,254.5 Z"/></g>
<g><path style="opacity:1" fill="#feec02" d="M 210.5,254.5 C 210.667,287.168 210.5,319.835 210,352.5C 206.771,393.297 189.605,426.631 158.5,452.5C 156.654,436.537 157.32,420.704 160.5,405C 160.577,402.949 160.077,401.116 159,399.5C 157.328,412.345 151.828,423.179 142.5,432C 138.782,434.298 134.782,434.965 130.5,434C 129.228,432.693 128.228,431.193 127.5,429.5C 126.353,431.765 126.186,434.098 127,436.5C 129.648,438.82 131.981,441.486 134,444.5C 136.485,453.105 138.651,461.772 140.5,470.5C 138.782,473.715 136.449,474.548 133.5,473C 121.667,461.167 109.833,449.333 98,437.5C 75.8429,411.722 63.8429,381.722 62,347.5C 61.5,316.502 61.3334,285.502 61.5,254.5C 76.1001,242.368 92.7668,234.201 111.5,230C 148.419,223.01 181.419,231.177 210.5,254.5 Z"/></g>
<g><path style="opacity:1" fill="#e63111" d="M 162.5,250.5 C 163.376,250.369 164.043,250.702 164.5,251.5C 156.556,269.696 155.39,288.363 161,307.5C 166.262,321.107 169.762,335.107 171.5,349.5C 171.811,361.977 168.477,373.311 161.5,383.5C 161.167,382.833 160.833,382.167 160.5,381.5C 165.947,370.434 168.113,358.767 167,346.5C 164.154,332.626 160.487,318.96 156,305.5C 151.204,286.254 153.371,267.921 162.5,250.5 Z"/></g>
<g><path style="opacity:1" fill="#e42412" d="M 145.5,278.5 C 146.097,278.735 146.43,279.235 146.5,280C 144.123,293.183 141.623,306.349 139,319.5C 137.435,323.4 135.435,327.066 133,330.5C 116.296,342.259 109.963,358.259 114,378.5C 114.43,387.8 117.597,395.967 123.5,403C 125.677,404.202 128.011,404.702 130.5,404.5C 130.5,405.833 130.5,407.167 130.5,408.5C 127.5,408.5 124.5,408.5 121.5,408.5C 121.285,412.451 123.118,414.784 127,415.5C 143.419,410.743 153.253,399.91 156.5,383C 155.497,380.532 154.997,378.032 155,375.5C 156.385,376.551 157.385,377.884 158,379.5C 159.078,394.844 153.911,407.678 142.5,418C 137.067,421.809 131.067,423.143 124.5,422C 122.951,420.786 121.785,419.286 121,417.5C 120.667,413.833 120.333,410.167 120,406.5C 114.021,399.244 110.354,390.91 109,381.5C 106.117,365.249 109.117,350.249 118,336.5C 125.843,329.998 132.177,322.332 137,313.5C 139.419,305.317 141.086,296.984 142,288.5C 142.679,284.961 143.846,281.628 145.5,278.5 Z"/></g>
<g><path style="opacity:1" fill="#e62c11" d="M 149.5,313.5 C 151.018,326.451 153.018,339.451 155.5,352.5C 155.624,361.136 154.124,369.469 151,377.5C 150.327,380.808 148.494,382.642 145.5,383C 149.987,374.403 151.987,365.236 151.5,355.5C 150.505,345.512 149.505,335.512 148.5,325.5C 148.613,321.465 148.946,317.465 149.5,313.5 Z"/></g>
<g><path style="opacity:1" fill="#e52d11" d="M 138.5,328.5 C 139.496,328.414 140.329,328.748 141,329.5C 142.397,336.452 142.73,343.452 142,350.5C 141.055,346.886 140.388,343.219 140,339.5C 135.876,349.081 131.209,358.414 126,367.5C 121.537,376.923 121.371,386.423 125.5,396C 124.352,397.726 123.185,397.559 122,395.5C 117.23,384.72 117.563,374.053 123,363.5C 127.732,356.427 132.065,349.094 136,341.5C 137.05,337.197 137.884,332.863 138.5,328.5 Z"/></g>
<g><path style="opacity:0.529" fill="#006cb4" d="M 247.5,380.5 C 446.167,380.5 644.833,380.5 843.5,380.5C 843.5,382.833 843.5,385.167 843.5,387.5C 644.833,387.5 446.167,387.5 247.5,387.5C 247.5,385.167 247.5,382.833 247.5,380.5 Z"/></g>
<g><path style="opacity:1" fill="#e42712" d="M 158.5,452.5 C 157.5,454.167 156.167,455.5 154.5,456.5C 154.221,449.156 153.721,441.823 153,434.5C 152.282,433.549 151.449,433.383 150.5,434C 147.681,436.575 144.681,438.908 141.5,441C 140.282,442.438 139.615,444.105 139.5,446C 140.805,453.052 142.472,459.885 144.5,466.5C 143.5,468.167 142.167,469.5 140.5,470.5C 138.651,461.772 136.485,453.105 134,444.5C 131.981,441.486 129.648,438.82 127,436.5C 126.186,434.098 126.353,431.765 127.5,429.5C 128.228,431.193 129.228,432.693 130.5,434C 134.782,434.965 138.782,434.298 142.5,432C 151.828,423.179 157.328,412.345 159,399.5C 160.077,401.116 160.577,402.949 160.5,405C 157.32,420.704 156.654,436.537 158.5,452.5 Z"/></g>
<g><path style="opacity:0.954" fill="#e40512" d="M 786.5,409.5 C 794.869,409.348 800.369,413.348 803,421.5C 804.267,426.435 805.1,431.435 805.5,436.5C 803.5,436.5 801.5,436.5 799.5,436.5C 799.588,431.517 798.421,426.851 796,422.5C 793.469,418.798 790.302,417.965 786.5,420C 783.769,422.626 781.936,425.793 781,429.5C 776.946,444.877 777.946,459.877 784,474.5C 788,479.833 792,479.833 796,474.5C 798.559,468.417 800.059,462.084 800.5,455.5C 802.167,455.5 803.833,455.5 805.5,455.5C 805.775,464.623 803.942,473.29 800,481.5C 793.37,489.399 786.703,489.399 780,481.5C 770,459.5 770,437.5 780,415.5C 782.063,413.266 784.229,411.266 786.5,409.5 Z"/></g>
<g><path style="opacity:0.896" fill="#e40512" d="M 248.5,410.5 C 264.201,407.084 273.701,413.084 277,428.5C 279,441.833 279,455.167 277,468.5C 273.701,483.916 264.201,489.916 248.5,486.5C 248.5,474.833 248.5,463.167 248.5,451.5C 247.5,451.5 246.5,451.5 245.5,451.5C 245.5,448.833 245.5,446.167 245.5,443.5C 246.5,443.5 247.5,443.5 248.5,443.5C 248.5,432.5 248.5,421.5 248.5,410.5 Z M 254.5,420.5 C 265.033,418.535 270.867,422.869 272,433.5C 272.667,443.167 272.667,452.833 272,462.5C 271.342,473.659 265.509,478.326 254.5,476.5C 254.5,468.167 254.5,459.833 254.5,451.5C 258.167,451.5 261.833,451.5 265.5,451.5C 265.5,448.833 265.5,446.167 265.5,443.5C 261.833,443.5 258.167,443.5 254.5,443.5C 254.5,435.833 254.5,428.167 254.5,420.5 Z"/></g>
<g><path style="opacity:0.953" fill="#e40512" d="M 435.5,409.5 C 445.496,409.986 451.33,415.319 453,425.5C 453.548,429.17 454.048,432.837 454.5,436.5C 452.5,436.5 450.5,436.5 448.5,436.5C 448.276,431.603 447.109,426.936 445,422.5C 440.366,417.137 436.032,417.47 432,423.5C 426,440.167 426,456.833 432,473.5C 437.722,480.485 442.389,479.818 446,471.5C 447.962,466.344 448.795,461.011 448.5,455.5C 450.5,455.5 452.5,455.5 454.5,455.5C 454.682,465.077 452.516,474.077 448,482.5C 441.364,489.313 435.031,488.979 429,481.5C 419.812,460.805 419.145,439.805 427,418.5C 429.362,414.973 432.196,411.973 435.5,409.5 Z"/></g>
<g><path style="opacity:0.923" fill="#e60512" d="M 466.5,409.5 C 468.288,409.215 469.955,409.548 471.5,410.5C 473.905,416.051 475.905,421.717 477.5,427.5C 475.801,427.66 474.134,427.494 472.5,427C 471.144,424.602 469.977,422.102 469,419.5C 467.374,421.917 465.874,424.417 464.5,427C 463.207,427.49 461.873,427.657 460.5,427.5C 461.899,421.303 463.899,415.303 466.5,409.5 Z"/></g>
<g><path style="opacity:0.887" fill="#e20612" d="M 639.5,409.5 C 641.467,409.261 643.301,409.594 645,410.5C 647.264,415.793 649.431,421.127 651.5,426.5C 649.5,427.833 647.5,427.833 645.5,426.5C 644.423,424.088 643.256,421.754 642,419.5C 641.023,422.102 639.856,424.602 638.5,427C 636.741,427.798 635.074,427.631 633.5,426.5C 635.8,420.909 637.8,415.242 639.5,409.5 Z"/></g>
<g><path style="opacity:0.967" fill="#e30512" d="M 808.5,410.5 C 811.394,410.042 813.894,410.709 816,412.5C 819.247,430.666 822.914,448.666 827,466.5C 830.438,447.808 833.938,429.142 837.5,410.5C 839.833,410.5 842.167,410.5 844.5,410.5C 844.5,435.833 844.5,461.167 844.5,486.5C 842.5,486.5 840.5,486.5 838.5,486.5C 838.667,470.497 838.5,454.497 838,438.5C 835.257,454.217 832.257,469.884 829,485.5C 827.333,486.833 825.667,486.833 824,485.5C 820.871,469.524 817.871,453.524 815,437.5C 814.5,453.83 814.333,470.163 814.5,486.5C 812.5,486.5 810.5,486.5 808.5,486.5C 808.5,461.167 808.5,435.833 808.5,410.5 Z"/></g>
<g><path style="opacity:0.859" fill="#e40513" d="M 605.5,410.5 C 607.167,410.5 608.833,410.5 610.5,410.5C 610.334,418.174 610.5,425.841 611,433.5C 617.271,427.602 622.271,428.602 626,436.5C 627.425,453.118 627.925,469.785 627.5,486.5C 625.833,486.5 624.167,486.5 622.5,486.5C 622.667,473.496 622.5,460.496 622,447.5C 621.759,444.711 621.092,442.044 620,439.5C 618,438.167 616,438.167 614,439.5C 612.438,441.957 611.438,444.624 611,447.5C 610.5,460.496 610.333,473.496 610.5,486.5C 608.833,486.5 607.167,486.5 605.5,486.5C 605.5,461.167 605.5,435.833 605.5,410.5 Z"/></g>
<g><path style="opacity:0.966" fill="#e30514" d="M 667.5,410.5 C 677.167,410.5 686.833,410.5 696.5,410.5C 696.5,413.833 696.5,417.167 696.5,420.5C 692.833,420.5 689.167,420.5 685.5,420.5C 685.667,442.169 685.5,463.836 685,485.5C 683.301,486.406 681.467,486.739 679.5,486.5C 679.5,464.5 679.5,442.5 679.5,420.5C 675.5,420.5 671.5,420.5 667.5,420.5C 667.5,417.167 667.5,413.833 667.5,410.5 Z"/></g>
<g><path style="opacity:0.931" fill="#e50611" d="M 307.5,410.5 C 309.167,410.5 310.833,410.5 312.5,410.5C 312.5,415.167 312.5,419.833 312.5,424.5C 310.5,424.5 308.5,424.5 306.5,424.5C 306.226,419.737 306.559,415.07 307.5,410.5 Z"/></g>
<g><path style="opacity:0.966" fill="#e40512" d="M 330.5,410.5 C 332.167,410.5 333.833,410.5 335.5,410.5C 335.334,418.174 335.5,425.841 336,433.5C 342.271,427.602 347.271,428.602 351,436.5C 352.425,453.118 352.925,469.785 352.5,486.5C 350.833,486.5 349.167,486.5 347.5,486.5C 347.667,473.496 347.5,460.496 347,447.5C 346.759,444.711 346.092,442.044 345,439.5C 343,438.167 341,438.167 339,439.5C 337.438,441.957 336.438,444.624 336,447.5C 335.5,460.496 335.333,473.496 335.5,486.5C 333.833,486.5 332.167,486.5 330.5,486.5C 330.5,461.167 330.5,435.833 330.5,410.5 Z"/></g>
<g><path style="opacity:0.985" fill="#e40513" d="M 740.5,410.5 C 742.167,410.5 743.833,410.5 745.5,410.5C 745.5,421.167 745.5,431.833 745.5,442.5C 751.5,442.5 757.5,442.5 763.5,442.5C 763.5,431.833 763.5,421.167 763.5,410.5C 765.5,410.5 767.5,410.5 769.5,410.5C 769.5,435.833 769.5,461.167 769.5,486.5C 767.5,486.5 765.5,486.5 763.5,486.5C 763.5,474.833 763.5,463.167 763.5,451.5C 757.5,451.5 751.5,451.5 745.5,451.5C 745.5,463.167 745.5,474.833 745.5,486.5C 743.833,486.5 742.167,486.5 740.5,486.5C 740.5,461.167 740.5,435.833 740.5,410.5 Z"/></g>
<g><path style="opacity:0.948" fill="#e40512" d="M 288.5,429.5 C 294.392,428.073 298.559,430.073 301,435.5C 302.262,449.445 302.929,463.445 303,477.5C 303.414,477.043 303.914,476.709 304.5,476.5C 305.833,479.5 305.833,482.5 304.5,485.5C 300.959,486.639 298.793,485.306 298,481.5C 293.814,488.538 288.814,489.205 283,483.5C 280.092,475.631 279.759,467.631 282,459.5C 285.324,455.084 289.824,452.584 295.5,452C 298.065,447.934 298.065,443.767 295.5,439.5C 290.972,437.383 288.138,438.717 287,443.5C 286.503,445.81 286.337,448.143 286.5,450.5C 284.833,450.5 283.167,450.5 281.5,450.5C 280.323,442.16 282.657,435.16 288.5,429.5 Z M 296.5,459.5 C 298.287,466.202 296.954,472.369 292.5,478C 289.196,479.042 287.029,477.875 286,474.5C 284.849,470.171 285.682,466.338 288.5,463C 291.309,461.907 293.976,460.74 296.5,459.5 Z"/></g>
<g><path style="opacity:0.946" fill="#e40512" d="M 465.5,429.5 C 469.909,428.618 473.409,429.952 476,433.5C 478.65,437.78 480.316,442.447 481,447.5C 481.807,456.546 481.474,465.546 480,474.5C 478.941,477.618 477.608,480.618 476,483.5C 468.378,489.555 462.711,487.889 459,478.5C 453.777,462.738 454.777,447.405 462,432.5C 463.145,431.364 464.312,430.364 465.5,429.5 Z M 466.5,438.5 C 468.467,438.261 470.301,438.594 472,439.5C 477.037,450.545 477.703,461.878 474,473.5C 471.008,479.596 467.675,479.93 464,474.5C 461.601,466.328 460.934,457.994 462,449.5C 462.634,445.419 464.134,441.752 466.5,438.5 Z"/></g>
<g><path style="opacity:0.957" fill="#e40512" d="M 493.5,429.5 C 501.177,429.003 505.343,432.669 506,440.5C 506.5,455.83 506.667,471.163 506.5,486.5C 504.833,486.5 503.167,486.5 501.5,486.5C 501.667,472.829 501.5,459.163 501,445.5C 501.025,439.499 498.358,437.499 493,439.5C 491.395,442.648 490.395,445.981 490,449.5C 489.5,461.829 489.333,474.162 489.5,486.5C 487.833,486.5 486.167,486.5 484.5,486.5C 484.5,467.833 484.5,449.167 484.5,430.5C 486.167,430.5 487.833,430.5 489.5,430.5C 489.351,431.552 489.517,432.552 490,433.5C 491.376,432.295 492.542,430.962 493.5,429.5 Z"/></g>
<g><path style="opacity:0.918" fill="#e40512" d="M 639.5,429.5 C 646.288,428.78 650.454,431.78 652,438.5C 653.977,446.039 654.811,453.706 654.5,461.5C 648.167,461.5 641.833,461.5 635.5,461.5C 635.536,465.979 636.369,470.312 638,474.5C 640.477,479.368 643.477,479.701 647,475.5C 647.897,472.51 648.731,469.51 649.5,466.5C 651.045,465.548 652.712,465.215 654.5,465.5C 654.536,473.212 652.202,480.046 647.5,486C 641.54,488.868 637.04,487.368 634,481.5C 629.333,466.167 629.333,450.833 634,435.5C 635.36,432.977 637.193,430.977 639.5,429.5 Z M 640.5,438.5 C 642.722,438.178 644.556,438.845 646,440.5C 647.644,444.22 648.81,448.053 649.5,452C 644.798,452.828 640.131,452.662 635.5,451.5C 636.196,446.739 637.862,442.406 640.5,438.5 Z"/></g>
<g><path style="opacity:0.919" fill="#e40511" d="M 306.5,430.5 C 308.5,430.5 310.5,430.5 312.5,430.5C 312.5,449.167 312.5,467.833 312.5,486.5C 310.533,486.739 308.699,486.406 307,485.5C 306.5,467.17 306.333,448.836 306.5,430.5 Z"/></g>
<g><path style="opacity:0.939" fill="#e40512" d="M 364.5,429.5 C 369.543,428.431 373.377,430.097 376,434.5C 378.133,438.232 379.466,442.232 380,446.5C 380.886,455.895 380.553,465.228 379,474.5C 378.158,481.334 374.491,485.668 368,487.5C 364.575,487.081 361.909,485.414 360,482.5C 358.268,478.637 356.934,474.637 356,470.5C 355.141,460.781 355.474,451.115 357,441.5C 358.247,436.663 360.747,432.663 364.5,429.5 Z M 365.5,438.5 C 368.044,438.104 370.211,438.771 372,440.5C 376.901,452.981 376.568,465.315 371,477.5C 366.709,479.565 364.043,478.232 363,473.5C 359.103,461.392 359.936,449.726 365.5,438.5 Z"/></g>
<g><path style="opacity:0.94" fill="#e40512" d="M 391.5,429.5 C 399.244,428.406 403.744,431.74 405,439.5C 405.936,443.114 406.436,446.78 406.5,450.5C 404.712,450.785 403.045,450.452 401.5,449.5C 400.97,445.649 399.637,442.149 397.5,439C 393.276,437.55 390.776,439.05 390,443.5C 386.526,454.287 386.86,464.954 391,475.5C 392.786,478.362 395.119,479.028 398,477.5C 399.949,473.371 401.116,469.037 401.5,464.5C 403.167,464.5 404.833,464.5 406.5,464.5C 406.977,472.648 404.644,479.814 399.5,486C 396.5,488 393.5,488 390.5,486C 385.955,481.072 383.455,475.239 383,468.5C 381.693,457.588 382.693,446.921 386,436.5C 387.666,434.004 389.5,431.671 391.5,429.5 Z"/></g>
<g><path style="opacity:0.959" fill="#e40512" d="M 518.5,429.5 C 522.594,428.705 525.761,430.038 528,433.5C 528.483,432.552 528.649,431.552 528.5,430.5C 530.167,430.5 531.833,430.5 533.5,430.5C 533.946,452.878 533.446,475.211 532,497.5C 528.195,507.325 522.195,508.991 514,502.5C 511.133,497.901 509.966,492.901 510.5,487.5C 512.167,487.5 513.833,487.5 515.5,487.5C 515.389,491.349 516.722,494.516 519.5,497C 523.752,498.414 526.252,496.914 527,492.5C 528.325,488.572 528.658,484.572 528,480.5C 522.67,487.311 517.67,486.977 513,479.5C 509.19,467.022 508.524,454.356 511,441.5C 512.276,436.589 514.776,432.589 518.5,429.5 Z M 519.5,438.5 C 523.825,438.102 526.325,440.102 527,444.5C 529.23,453.937 528.897,463.27 526,472.5C 523,477.833 520,477.833 517,472.5C 513.095,460.708 513.928,449.374 519.5,438.5 Z"/></g>
<g><path style="opacity:0.897" fill="#e50512" d="M 560.5,429.5 C 567.271,428.759 571.437,431.759 573,438.5C 574.508,454.137 574.841,469.803 574,485.5C 572.301,486.406 570.467,486.739 568.5,486.5C 568.667,472.163 568.5,457.829 568,443.5C 566.762,438.363 564.095,437.363 560,440.5C 559.138,442.087 558.471,443.754 558,445.5C 556.638,459.126 556.138,472.792 556.5,486.5C 554.833,486.5 553.167,486.5 551.5,486.5C 551.5,467.833 551.5,449.167 551.5,430.5C 553.167,430.5 554.833,430.5 556.5,430.5C 556.343,431.873 556.51,433.207 557,434.5C 557.997,432.677 559.164,431.01 560.5,429.5 Z"/></g>
<g><path style="opacity:0.941" fill="#e40512" d="M 585.5,429.5 C 589.684,428.704 592.85,430.037 595,433.5C 595.483,432.552 595.649,431.552 595.5,430.5C 597.5,430.5 599.5,430.5 601.5,430.5C 601.667,449.17 601.5,467.836 601,486.5C 600.811,491.346 599.811,496.012 598,500.5C 594.608,506.467 589.774,507.967 583.5,505C 578.976,500.085 576.976,494.252 577.5,487.5C 579.288,487.215 580.955,487.548 582.5,488.5C 583.18,490.889 584.014,493.222 585,495.5C 591.079,498.819 594.412,496.819 595,489.5C 595.667,486.833 595.667,484.167 595,481.5C 590.104,486.868 585.437,486.534 581,480.5C 575.001,465.176 575.001,449.843 581,434.5C 582.707,432.963 584.207,431.296 585.5,429.5 Z M 586.5,438.5 C 588.467,438.261 590.301,438.594 592,439.5C 596.25,450.681 596.583,462.014 593,473.5C 590.842,476.95 588.342,477.283 585.5,474.5C 584.208,472.333 583.375,470 583,467.5C 582.333,460.833 582.333,454.167 583,447.5C 583.622,444.261 584.788,441.261 586.5,438.5 Z"/></g>
<g><path style="opacity:0.957" fill="#e40512" d="M 707.5,429.5 C 715.038,429.188 719.538,432.855 721,440.5C 723.275,450.824 723.608,461.157 722,471.5C 721.112,476.169 719.445,480.503 717,484.5C 712.375,488.646 708.041,488.313 704,483.5C 703.667,490.5 703.333,497.5 703,504.5C 701.333,505.833 699.667,505.833 698,504.5C 697.5,479.836 697.333,455.169 697.5,430.5C 699.167,430.5 700.833,430.5 702.5,430.5C 702.343,431.873 702.51,433.207 703,434.5C 704.366,432.638 705.866,430.972 707.5,429.5 Z M 707.5,438.5 C 709.604,438.201 711.604,438.534 713.5,439.5C 715.552,442.488 716.719,445.821 717,449.5C 718.319,458.799 717.319,467.799 714,476.5C 711.034,479.265 708.367,478.932 706,475.5C 703.562,466.323 702.896,456.989 704,447.5C 704.622,444.261 705.788,441.261 707.5,438.5 Z"/></g>
<g><path style="opacity:1" fill="#fdea02" d="M 154.5,456.5 C 151.5,460.167 148.167,463.5 144.5,466.5C 142.472,459.885 140.805,453.052 139.5,446C 139.615,444.105 140.282,442.438 141.5,441C 144.681,438.908 147.681,436.575 150.5,434C 151.449,433.383 152.282,433.549 153,434.5C 153.721,441.823 154.221,449.156 154.5,456.5 Z"/></g>
<g><path style="opacity:1" fill="#e70412" d="M 727.5,471.5 C 733.747,470.249 736.08,472.749 734.5,479C 736.08,485.251 733.747,487.751 727.5,486.5C 727.5,481.5 727.5,476.5 727.5,471.5 Z"/></g>
<g><path style="opacity:0.961" fill="#e70516" d="M 289.5,488.5 C 291.5,488.5 293.5,488.5 295.5,488.5C 295.5,493.167 295.5,497.833 295.5,502.5C 293.5,502.5 291.5,502.5 289.5,502.5C 289.5,497.833 289.5,493.167 289.5,488.5 Z"/></g>
<g><path style="opacity:0.989" fill="#e40512" d="M 365.5,488.5 C 367.167,488.5 368.833,488.5 370.5,488.5C 370.5,493.167 370.5,497.833 370.5,502.5C 368.833,502.5 367.167,502.5 365.5,502.5C 365.5,497.833 365.5,493.167 365.5,488.5 Z"/></g>
<g><path style="opacity:1" fill="#e40512" d="M 639.5,488.5 C 641.5,488.5 643.5,488.5 645.5,488.5C 645.5,493.167 645.5,497.833 645.5,502.5C 643.5,502.5 641.5,502.5 639.5,502.5C 639.5,497.833 639.5,493.167 639.5,488.5 Z"/></g>
</svg>
